<svg width="24" height="24" viewBox="0 0 24 24" fill="none" xmlns="http://www.w3.org/2000/svg">
<mask id="mask0_1_367" style="mask-type:alpha" maskUnits="userSpaceOnUse" x="0" y="0" width="24" height="24">
<rect width="24" height="24" fill="#D9D9D9"/>
</mask>
<g mask="url(#mask0_1_367)">
<path d="M19.6 21L13.25 14.65L14.65 13.25L21 19.6L19.6 21ZM5.95 20.3C4.95 19.3 4.20833 18.175 3.725 16.925C3.24167 15.675 3 14.4 3 13.1C3 11.8 3.24167 10.5333 3.725 9.30001C4.20833 8.06667 4.95 6.95001 5.95 5.95001C6.95 4.95001 8.07083 4.20417 9.3125 3.71251C10.5542 3.22084 11.825 2.97501 13.125 2.97501C14.425 2.97501 15.6958 3.22084 16.9375 3.71251C18.1792 4.20417 19.3 4.95001 20.3 5.95001L5.95 20.3ZM6.15 17.25L7.5 15.9C7.23333 15.55 6.97917 15.1917 6.7375 14.825C6.49583 14.4583 6.275 14.0917 6.075 13.725C5.875 13.3583 5.7 12.9917 5.55 12.625C5.4 12.2583 5.26667 11.9 5.15 11.55C4.96667 12.5333 4.95417 13.5167 5.1125 14.5C5.27083 15.4833 5.61667 16.4 6.15 17.25ZM8.95 14.5L14.5 8.90001C13.7833 8.35001 13.0625 7.90417 12.3375 7.56251C11.6125 7.22084 10.9333 6.98751 10.3 6.86251C9.66667 6.73751 9.09583 6.71667 8.5875 6.80001C8.07917 6.88334 7.68333 7.06667 7.4 7.35001C7.11667 7.65001 6.93333 8.05417 6.85 8.56251C6.76667 9.07084 6.7875 9.64584 6.9125 10.2875C7.0375 10.9292 7.27083 11.6083 7.6125 12.325C7.95417 13.0417 8.4 13.7667 8.95 14.5ZM15.9 7.50001L17.3 6.15001C16.4167 5.61667 15.4833 5.26667 14.5 5.10001C13.5167 4.93334 12.5333 4.95001 11.55 5.15001C11.9167 5.26667 12.2833 5.40001 12.65 5.55001C13.0167 5.70001 13.3833 5.87084 13.75 6.06251C14.1167 6.25417 14.4792 6.47084 14.8375 6.71251C15.1958 6.95417 15.55 7.21667 15.9 7.50001Z" fill="#DADADA"/>
</g>
</svg>
