<svg width="24" height="24" viewBox="0 0 24 24" fill="none" xmlns="http://www.w3.org/2000/svg">
<mask id="mask0_1_364" style="mask-type:alpha" maskUnits="userSpaceOnUse" x="0" y="0" width="24" height="24">
<rect width="24" height="24" fill="#D9D9D9"/>
</mask>
<g mask="url(#mask0_1_364)">
<path d="M11 5V1H13V5H11ZM17.65 7.75L16.25 6.35L19.075 3.5L20.475 4.925L17.65 7.75ZM19 13V11H23V13H19ZM19.075 20.475L16.25 17.65L17.65 16.25L20.5 19.05L19.075 20.475ZM6.35 7.75L3.525 4.925L4.95 3.5L7.75 6.35L6.35 7.75ZM6 19H10.5C10.9167 19 11.2708 18.8542 11.5625 18.5625C11.8542 18.2708 12 17.9167 12 17.5C12 17.0833 11.8583 16.7292 11.575 16.4375C11.2917 16.1458 10.9417 16 10.525 16H9.25L8.75 14.8C8.51667 14.25 8.15 13.8125 7.65 13.4875C7.15 13.1625 6.6 13 6 13C5.16667 13 4.45833 13.2917 3.875 13.875C3.29167 14.4583 3 15.1667 3 16C3 16.8333 3.29167 17.5417 3.875 18.125C4.45833 18.7083 5.16667 19 6 19ZM6 21C4.61667 21 3.4375 20.5125 2.4625 19.5375C1.4875 18.5625 1 17.3833 1 16C1 14.6167 1.4875 13.4375 2.4625 12.4625C3.4375 11.4875 4.61667 11 6 11C7 11 7.9125 11.2708 8.7375 11.8125C9.5625 12.3542 10.175 13.0833 10.575 14C11.5417 14 12.3542 14.3583 13.0125 15.075C13.6708 15.7917 14 16.65 14 17.65C13.9667 18.6 13.6125 19.3958 12.9375 20.0375C12.2625 20.6792 11.45 21 10.5 21H6ZM14 17.65C13.9167 17.3167 13.8333 16.9917 13.75 16.675C13.6667 16.3583 13.5833 16.0333 13.5 15.7C14.25 15.3833 14.8542 14.8917 15.3125 14.225C15.7708 13.5583 16 12.8167 16 12C16 10.9 15.6083 9.95833 14.825 9.175C14.0417 8.39167 13.1 8 12 8C11 8 10.125 8.325 9.375 8.975C8.625 9.625 8.18333 10.45 8.05 11.45C7.71667 11.3667 7.375 11.2917 7.025 11.225C6.675 11.1583 6.33333 11.0833 6 11C6.23333 9.53333 6.92083 8.33333 8.0625 7.4C9.20417 6.46667 10.5167 6 12 6C13.6667 6 15.0833 6.58333 16.25 7.75C17.4167 8.91667 18 10.3333 18 12C18 13.2833 17.6333 14.4375 16.9 15.4625C16.1667 16.4875 15.2 17.2167 14 17.65Z" fill="#DADADA"/>
</g>
</svg>
